<?xml version="1.0" encoding="UTF-8"?><svg xmlns="http://www.w3.org/2000/svg" viewBox="0 0 1200.5 1200.5"><defs><style>.cls-1{fill:#6a665b;}.cls-2{fill:#fee1a4;}.cls-2,.cls-3,.cls-4{stroke:#8c8c8c;stroke-miterlimit:10;}.cls-2,.cls-4{stroke-width:.25px;}.cls-3{fill:#fff4d9;stroke-width:.5px;}.cls-4{fill:#98694e;}</style></defs><g id="Layer_3"><rect class="cls-3" x=".25" y=".25" width="1200" height="1200" rx="300" ry="300"/></g><g id="Layer_1"><path class="cls-4" d="M1153.2,496.38c0-88.86-72.04-160.9-160.9-160.9-19.18,0-37.58,3.36-54.64,9.52-81.64-94.77-202.52-154.77-337.41-154.77s-255.77,60-337.41,154.77c-17.06-6.16-35.46-9.52-54.64-9.52-88.86,0-160.9,72.04-160.9,160.9,0,70.32,45.11,130.09,107.97,151.98,6.85,239.87,203.45,432.21,444.98,432.21s438.12-192.35,444.98-432.21c62.86-21.89,107.97-81.66,107.97-151.98Z"/><path class="cls-2" d="M972.23,586.54c0-119.83-97.14-216.98-216.98-216.98-60.73,0-115.62,24.96-155,65.16-39.38-40.2-94.27-65.16-155-65.16-119.83,0-216.98,97.14-216.98,216.98,0,99.9,67.52,184.01,159.4,209.24-3.54,15.6-5.42,31.83-5.42,48.5,0,120.4,97.6,218,218,218s218-97.6,218-218c0-16.67-1.88-32.9-5.42-48.5,91.89-25.23,159.4-109.34,159.4-209.24Z"/></g><g id="Layer_2"><g><circle class="cls-1" cx="444.62" cy="611.53" r="52.78"/><circle class="cls-1" cx="755.88" cy="611.53" r="52.78"/></g><path class="cls-1" d="M654.69,850.16c-29.21,4.42-45.55,15.22-54.44,36.35-8.89-21.13-25.22-31.92-54.44-36.35-4.36-.66-29.43,12.27-.51,19.95,39.49,10.49,44.11,26.91,45.21,84.42,0,.22,0,.44-.01,.66,0,.39,.01,.76,.04,1.13,0,.41,.01,.82,.02,1.23,.1,5.76,4.89,8.14,9.68,7.65,4.8,.49,9.59-1.89,9.68-7.65,0-.42,.01-.82,.02-1.23,.03-.37,.05-.74,.04-1.13,0-.22,0-.44-.01-.66,1.1-57.51,5.72-73.93,45.21-84.42,28.92-7.68,3.85-20.62-.51-19.95Z"/></g></svg>