<?xml version="1.0" encoding="UTF-8"?><svg id="Layer_1" xmlns="http://www.w3.org/2000/svg" viewBox="0 0 3600 1200"><g><path d="M943.78,521.77c0-64.84-52.57-117.41-117.41-117.41-14,0-27.42,2.45-39.87,6.95-59.57-69.15-147.78-112.94-246.22-112.94s-186.64,43.79-246.22,112.94c-12.45-4.49-25.87-6.95-39.87-6.95-64.84,0-117.41,52.57-117.41,117.41,0,51.31,32.92,94.93,78.79,110.9,5,175.04,148.46,315.4,324.71,315.4s319.71-140.36,324.71-315.4c45.87-15.97,78.79-59.59,78.79-110.9Z" style="fill:#98694e; stroke:#8c8c8c; stroke-miterlimit:10; stroke-width:.18px;"/><path d="M811.72,587.56c0-87.45-70.89-158.33-158.33-158.33-44.31,0-84.37,18.21-113.11,47.55-28.74-29.34-68.79-47.55-113.11-47.55-87.45,0-158.33,70.89-158.33,158.33,0,72.9,49.27,134.28,116.32,152.69-2.59,11.38-3.96,23.23-3.96,35.39,0,87.86,71.22,159.08,159.08,159.08s159.08-71.22,159.08-159.08c0-12.17-1.37-24.01-3.96-35.39,67.05-18.41,116.32-79.79,116.32-152.69Z" style="fill:#fee1a4; stroke:#8c8c8c; stroke-miterlimit:10; stroke-width:.18px;"/><g><circle cx="426.72" cy="605.8" r="38.52" style="fill:#6a665b;"/><circle cx="653.85" cy="605.8" r="38.52" style="fill:#6a665b;"/></g><path d="M580.01,779.93c-21.32,3.23-33.24,11.11-39.72,26.53-6.48-15.42-18.4-23.31-39.72-26.53-3.18-.48-21.48,8.96-.38,14.56,28.83,7.66,32.19,19.67,32.99,61.69,0,.13,0,.26,0,.39,0,.28,0,.55,.03,.82,0,.31,.01,.6,.02,.91,.07,4.2,3.56,5.94,7.07,5.58,3.5,.36,7-1.38,7.07-5.58,0-.31,.01-.6,.02-.91,.02-.27,.04-.54,.03-.82,0-.13,0-.26,0-.4,.8-42.02,4.16-54.03,32.99-61.69,21.1-5.61,2.81-15.04-.38-14.56Z" style="fill:#6a665b;"/></g><g><path d="M1085.8,448.16h82l63,173c8,23,15,47.5,22.5,71.5h2.5c8-24,14.5-48.5,22.5-71.5l61.5-173h82v370h-67.5v-154.5c0-35,5.5-86.5,9-121.5h-2l-30,87-57,155.5h-42.5l-57.5-155.5-29.5-87h-2c3.5,35,9.5,86.5,9.5,121.5v154.5h-66.5V448.16Z" style="fill:#666;"/><path d="M1484.29,678.66c0-93.5,64.5-147.5,134.5-147.5s134.5,54,134.5,147.5-64.5,146.5-134.5,146.5-134.5-54-134.5-146.5Zm194,0c0-53-21.5-87.5-59.5-87.5s-59.5,34.5-59.5,87.5,21.5,86.5,59.5,86.5,59.5-34,59.5-86.5Z" style="fill:#666;"/><path d="M1809.79,538.16h60l5,37h2c24.5-24,53-44,91-44,60.5,0,86.5,42,86.5,112.5v174.5h-73.5v-165.5c0-43-12-58.5-39.5-58.5-23,0-37.5,11-58.5,31.5v192.5h-73v-280Z" style="fill:#666;"/><path d="M2125.28,419.16h71.5v240h2l97-121h80l-97,114.5,106,165.5h-79.5l-68-116-40.5,46v70h-71.5V419.16Z" style="fill:#666;"/><path d="M2390.78,678.66c0-91,63.5-147.5,130.5-147.5,77,0,117,56.5,117,134,0,13.5-1.5,27-3.5,33.5h-172.5c6,46,36,70,77.5,70,23,0,43-7,63-19.5l25,45c-27.5,19-63,31-98,31-78,0-139-54.5-139-146.5Zm184.5-28.5c0-38-17-62-53-62-29.5,0-55.5,21-61,62h114Z" style="fill:#666;"/><path d="M2677.78,925.16l13.5-56.5c5,1.5,13,3.5,19.5,3.5,28.5,0,44.5-18,52.5-42.5l5-16.5-109-275h74l44.5,130c8.5,25,15.5,52,23.5,79h2.5c6.5-26,13.5-53,20-79l38.5-130h70.5l-99.5,288.5c-24.5,66-54.5,104-117,104-16.5,0-27.5-2-38.5-5.5Z" style="fill:#666;"/><path d="M2979.78,448.16h74v370h-74V448.16Z" style="fill:#666;"/><path d="M3139.77,448.16h101.5c113,0,183,58.5,183,183.5s-70,186.5-179,186.5h-105.5V448.16Zm97,310.5c69,0,112-37,112-127s-43-124.5-112-124.5h-23v251.5h23Z" style="fill:#666;"/></g></svg>